# xmcd
#
# Track frame offsets:
#	150
#	13947
#	24870
#	34876
#	50389
#	65759
#	78790
#	96390
#	109531
#	120675
#	136318
#	152233
#
# Disc length: 2300 seconds
#
# Revision: 1
# Processed by: cddbd v1.5.2PL0 Copyright (c) Steve Scherf et al.
# Submitted via: audiograbber 1.83.01
#
DISCID=9808fa0c
DTITLE=Kacey Musgraves - A Very Kacey Christmas
DYEAR=2016
DGENRE=Country Christmas
TTITLE0=Have Yourself A Merry Little Christmas
TTITLE1=Let It Snow
TTITLE2=Christmas Don't Be Late
TTITLE3=A Willie Nice Christmas
TTITLE4=Feliz Navidad
TTITLE5=Christmas Makes Me Cry
TTITLE6=Present Without A Bow
TTITLE7=Mele Kalikimaka
TTITLE8=I Want A Hippopotamus For Christmas
TTITLE9=Rudolph The Red-Nosed Reindeer
TTITLE10=Ribbons And Bows
TTITLE11=What Are You Doing New Year's Eve?
EXTD=
EXTT0=
EXTT1=
EXTT2=
EXTT3=
EXTT4=
EXTT5=
EXTT6=
EXTT7=
EXTT8=
EXTT9=
EXTT10=
EXTT11=
PLAYORDER=
